<?xml version="1.0" encoding="UTF-8" standalone="no"?>
<svg
   xmlns:dc="http://purl.org/dc/elements/1.1/"
   xmlns:cc="http://creativecommons.org/ns#"
   xmlns:rdf="http://www.w3.org/1999/02/22-rdf-syntax-ns#"
   xmlns:svg="http://www.w3.org/2000/svg"
   xmlns="http://www.w3.org/2000/svg"
   viewBox="0 0 159.44881 159.44883"
   height="45mm"
   width="45mm"
   xml:space="preserve"
   version="1.1"
   id="svg2"><metadata
     id="metadata8"><rdf:RDF><cc:Work
         rdf:about=""><dc:format>image/svg+xml</dc:format><dc:type
           rdf:resource="http://purl.org/dc/dcmitype/StillImage" /><dc:title></dc:title></cc:Work></rdf:RDF></metadata><defs
     id="defs6"><clipPath
       id="clipPath16"
       clipPathUnits="userSpaceOnUse"><path
         id="path18"
         d="M 0,280 140,280 140,0 0,0 0,280 Z" /></clipPath></defs><g
     transform="matrix(1.25,0,0,-1.25,0,159.44868)"
     id="g10"><g
       transform="translate(-5.8725742,-104.44806)"
       id="g12"><g
         clip-path="url(#clipPath16)"
         id="g14"><g
           transform="translate(50.2412,196.0864)"
           id="g20"><path
             id="path22"
             style="fill:#80cc28;fill-opacity:1;fill-rule:nonzero;stroke:none"
             d="m 0,0 c 2.204,0 3.989,-1.788 3.989,-3.99 l 0,-18.624 c 0,-2.203 -1.785,-3.992 -3.989,-3.992 l -18.624,0 c -2.203,0 -3.99,1.789 -3.99,3.992 l 0,18.624 c 0,2.202 1.787,3.99 3.99,3.99 L 0,0" /></g><g
           transform="translate(50.2412,166.8228)"
           id="g24"><path
             id="path26"
             style="fill:#80cc28;fill-opacity:1;fill-rule:nonzero;stroke:none"
             d="m 0,0 c 2.204,0 3.989,-1.788 3.989,-3.991 l 0,-18.624 c 0,-2.203 -1.785,-3.991 -3.989,-3.991 l -18.624,0 c -2.203,0 -3.99,1.788 -3.99,3.991 l 0,18.624 c 0,2.203 1.787,3.991 3.99,3.991 L 0,0" /></g><g
           transform="translate(50.2412,137.5586)"
           id="g28"><path
             id="path30"
             style="fill:#80cc28;fill-opacity:1;fill-rule:nonzero;stroke:none"
             d="m 0,0 c 2.204,0 3.989,-1.787 3.989,-3.99 l 0,-18.625 c 0,-2.201 -1.785,-3.99 -3.989,-3.99 l -18.624,0 c -2.203,0 -3.99,1.789 -3.99,3.99 l 0,18.625 c 0,2.203 1.787,3.99 3.99,3.99 L 0,0" /></g><g
           transform="translate(79.5049,225.3511)"
           id="g32"><path
             id="path34"
             style="fill:#80cc28;fill-opacity:1;fill-rule:nonzero;stroke:none"
             d="m 0,0 c 2.205,0 3.99,-1.787 3.99,-3.991 l 0,-18.623 c 0,-2.204 -1.785,-3.991 -3.99,-3.991 l -18.623,0 c -2.204,0 -3.99,1.787 -3.99,3.991 l 0,18.623 c 0,2.204 1.786,3.991 3.99,3.991 L 0,0" /></g><g
           transform="translate(79.5049,196.0864)"
           id="g36"><path
             id="path38"
             style="fill:#80cc28;fill-opacity:1;fill-rule:nonzero;stroke:none"
             d="m 0,0 c 2.204,0 3.99,-1.788 3.99,-3.99 l 0,-18.624 c 0,-2.203 -1.786,-3.992 -3.99,-3.992 l -18.624,0 c -2.203,0 -3.989,1.789 -3.989,3.992 l 0,18.624 c 0,2.202 1.786,3.99 3.989,3.99 L 0,0" /></g><g
           transform="translate(79.5049,166.8228)"
           id="g40"><path
             id="path42"
             style="fill:#80cc28;fill-opacity:1;fill-rule:nonzero;stroke:none"
             d="m 0,0 c 2.204,0 3.99,-1.788 3.99,-3.991 l 0,-18.624 c 0,-2.203 -1.786,-3.991 -3.99,-3.991 l -18.624,0 c -2.203,0 -3.989,1.788 -3.989,3.991 l 0,18.624 c 0,2.203 1.786,3.991 3.989,3.991 L 0,0" /></g><g
           transform="translate(108.7705,166.8228)"
           id="g44"><path
             id="path46"
             style="fill:#80cc28;fill-opacity:1;fill-rule:nonzero;stroke:none"
             d="m 0,0 c 2.203,0 3.991,-1.788 3.991,-3.991 l 0,-18.624 c 0,-2.203 -1.788,-3.991 -3.991,-3.991 l -18.624,0 c -2.202,0 -3.991,1.788 -3.991,3.991 l 0,18.624 c 0,2.203 1.789,3.991 3.991,3.991 L 0,0" /></g><g
           transform="translate(79.5049,137.5586)"
           id="g48"><path
             id="path50"
             style="fill:#80cc28;fill-opacity:1;fill-rule:nonzero;stroke:none"
             d="m 0,0 c 2.204,0 3.99,-1.787 3.99,-3.99 l 0,-18.625 c 0,-2.201 -1.786,-3.99 -3.99,-3.99 l -18.624,0 c -2.203,0 -3.989,1.789 -3.989,3.99 l 0,18.625 c 0,2.203 1.786,3.99 3.989,3.99 L 0,0" /></g><g
           transform="translate(108.7695,225.3511)"
           id="g52"><path
             id="path54"
             style="fill:#80cc28;fill-opacity:1;fill-rule:nonzero;stroke:none"
             d="m 0,0 c 2.204,0 3.991,-1.787 3.991,-3.991 l 0,-18.623 c 0,-2.204 -1.787,-3.991 -3.991,-3.991 l -18.624,0 c -2.203,0 -3.988,1.787 -3.988,3.991 l 0,18.623 c 0,2.204 1.785,3.991 3.988,3.991 L 0,0" /></g><g
           transform="translate(56.9111,211.3745)"
           id="g56"><path
             id="path58"
             style="fill:#ed1c24;fill-opacity:1;fill-rule:nonzero;stroke:none"
             d="m 0,0 c 0,-8.465 -6.864,-15.326 -15.326,-15.326 -8.461,0 -15.324,6.861 -15.324,15.326 0,8.462 6.863,15.321 15.324,15.321 C -6.863,15.321 0,8.462 0,0" /></g></g></g></g></svg>